<?xml version="1.0" encoding="utf-8"?>
<svg viewBox="0 0 507.6 507.6" xmlns="http://www.w3.org/2000/svg">
  <path style="fill:#EF934A;" d="M461.4,473.6c0,17.6-14.4,28-32,28h-356c-17.6,0-24-10.4-24-28v-396c0-17.6,6.4-32,24-32h356 c17.6,0,32,14.4,32,32V473.6z" transform="matrix(1, 0, 0, 1, 2.2737367544323206e-13, 0)"/>
  <rect x="81.4" y="69.6" style="fill:#F4EFEF;" width="348" height="404" transform="matrix(1, 0, 0, 1, 2.2737367544323206e-13, 0)"/>
  <path style="fill:#FFC52F;" d="M353.4,89.6V56.8c0-17.6-11.6-31.2-29.2-31.2H283C279.4,13.6,269,6,256.2,6 c-12.4,0-23.2,7.6-26.8,19.6h-41.6c-17.6,0-34.8,13.6-34.8,31.2v32.8H353.4z" transform="matrix(1, 0, 0, 1, 2.2737367544323206e-13, 0)"/>
  <path style="fill:#F4EFEF;" d="M256.6,40.8c-6.8,0-12-5.2-12-12s5.2-12,12-12s12,5.2,12,12S263,40.8,256.6,40.8z" transform="matrix(1, 0, 0, 1, 2.2737367544323206e-13, 0)"/>
  <path d="M427.4,479.6h-348c-2.4,0-4-1.6-4-4v-404c0-2.4,1.6-4,4-4h70c2.4,0,4,1.6,4,4s-1.6,4-4,4h-66v396h340v-396h-70 c-2.4,0-4-1.6-4-4s1.6-4,4-4h74c2.4,0,4,1.6,4,4v404C431.4,477.6,429.8,479.6,427.4,479.6z" transform="matrix(1, 0, 0, 1, 2.2737367544323206e-13, 0)"/>
  <path d="M432.6,507.6h-356c-19.2,0-32.8-14.8-32.8-35.2V77.2c0-20,13.2-33.6,32.8-33.6h73.2c2.4,0,4,1.6,4,4s-1.6,4-4,4H76.6 c-15.2,0-24.8,10-24.8,25.6v395.2c0,16,10.4,27.2,24.8,27.2h356c16.8,0,23.2-14,23.2-27.2V77.2c0-16.4-8.4-25.6-23.2-25.6h-78.8 c-2.4,0-4-1.6-4-4s1.6-4,4-4h78.8c19.2,0,31.2,12.8,31.2,33.6v395.2C463.4,493.6,451.4,507.6,432.6,507.6z" transform="matrix(1, 0, 0, 1, 2.2737367544323206e-13, 0)"/>
  <path d="M256.6,44.8c-8.8,0-16-7.2-16-16s7.2-16,16-16s16,7.2,16,16S265.4,44.8,256.6,44.8z M256.6,20.8c-4.4,0-8,3.6-8,8s3.6,8,8,8 s8-3.6,8-8S261,20.8,256.6,20.8z" transform="matrix(1, 0, 0, 1, 2.2737367544323206e-13, 0)"/>
  <path d="M351.4,91.6h-200c-2.4,0-4-1.6-4-4V52.8c0-20,21.2-33.2,40.8-33.2H227C231.8,7.6,243,0,256.6,0s24.8,7.6,29.6,19.6h38.4 c19.2,0,31.2,12.8,31.2,33.2v34.8C355.4,89.6,353.8,91.6,351.4,91.6z M155.4,83.6h192V52.8c0-16-8.4-25.2-23.2-25.2H283 c-1.6,0-3.2-1.2-4-2.8C276.2,14.4,267,8,256.2,8s-20,6.4-22.8,16.8c-0.4,1.6-2,2.8-4,2.8h-41.6c-16,0-32.8,10-32.8,25.2v30.8H155.4z " transform="matrix(1, 0, 0, 1, 2.2737367544323206e-13, 0)"/>
  <path d="M390.6,195.6h-164c-2.4,0-4-1.6-4-4s1.6-4,4-4h164c2.4,0,4,1.6,4,4S393,195.6,390.6,195.6z" transform="matrix(1, 0, 0, 1, 2.2737367544323206e-13, 0)"/>
  <path d="M274.6,259.6h-48c-2.4,0-4-1.6-4-4s1.6-4,4-4h48c2.4,0,4,1.6,4,4S277,259.6,274.6,259.6z" transform="matrix(1, 0, 0, 1, 2.2737367544323206e-13, 0)"/>
  <path d="M390.6,259.6h-80c-2.4,0-4-1.6-4-4s1.6-4,4-4h80c2.4,0,4,1.6,4,4S393,259.6,390.6,259.6z" transform="matrix(1, 0, 0, 1, 2.2737367544323206e-13, 0)"/>
  <path d="M390.6,387.6h-48c-2.4,0-4-1.6-4-4s1.6-4,4-4h48c2.4,0,4,1.6,4,4S393,387.6,390.6,387.6z" transform="matrix(1, 0, 0, 1, 2.2737367544323206e-13, 0)"/>
  <path d="M306.6,387.6h-80c-2.4,0-4-1.6-4-4s1.6-4,4-4h80c2.4,0,4,1.6,4,4S309,387.6,306.6,387.6z" transform="matrix(1, 0, 0, 1, 2.2737367544323206e-13, 0)"/>
  <path d="M390.6,323.6h-164c-2.4,0-4-1.6-4-4s1.6-4,4-4h164c2.4,0,4,1.6,4,4S393,323.6,390.6,323.6z" transform="matrix(1, 0, 0, 1, 2.2737367544323206e-13, 0)"/>
  <path d="M157,205.2c-1.2,0-2-0.4-2.8-1.2l-19.6-19.6c-1.6-1.6-1.6-4,0-5.6s4-1.6,5.6,0l16.8,16.8l33.2-33.2c1.6-1.6,4-1.6,5.6,0 s1.6,4,0,5.6l-36,36C159,204.8,158.2,205.2,157,205.2z" transform="matrix(1, 0, 0, 1, 2.2737367544323206e-13, 0)"/>
  <path d="M157,269.2c-1.2,0-2-0.4-2.8-1.2l-19.6-19.6c-1.6-1.6-1.6-4,0-5.6s4-1.6,5.6,0l16.8,16.8l33.2-33.2c1.6-1.6,4-1.6,5.6,0 s1.6,4,0,5.6l-36,36C159,268.8,158.2,269.2,157,269.2z" transform="matrix(1, 0, 0, 1, 2.2737367544323206e-13, 0)"/>
  <path d="M157,332.8c-1.2,0-2-0.4-2.8-1.2L134.6,312c-1.6-1.6-1.6-4,0-5.6s4-1.6,5.6,0l16.8,16.8l33.2-33.2c1.6-1.6,4-1.6,5.6,0 s1.6,4,0,5.6l-36,36C159,332.4,158.2,332.8,157,332.8z" transform="matrix(1, 0, 0, 1, 2.2737367544323206e-13, 0)"/>
  <path d="M157,396.8c-1.2,0-2-0.4-2.8-1.2L134.6,376c-1.6-1.6-1.6-4,0-5.6s4-1.6,5.6,0l16.8,16.8l33.2-33.2c1.6-1.6,4-1.6,5.6,0 s1.6,4,0,5.6l-36,36C159,396.8,158.2,396.8,157,396.8z" transform="matrix(1, 0, 0, 1, 2.2737367544323206e-13, 0)"/>
  <g transform="matrix(-1.3843669891357424, 0, 0, 1.3845579624176028, 851.9832280275707, -205.7468597553202)" style="">
    <path d="M 389.87 434.8 L 383.69 418.31 L 379.44 406.96 C 378.48 404.03 378.3 402.82 376.67 401.19 L 364.85 389.37 L 339.39 414.83 L 351.22 426.66 C 352.19 427.63 354.05 428.46 356.98 429.42 L 368.33 433.67 L 384.82 439.85 C 387.93 440.86 390.88 437.91 389.87 434.8 Z" fill="#ffecb3"/>
    <g fill="none" transform="matrix(1, 0, 0, 1, 266.000004, 316.000005)">
      <path d="M85.65 106.83l-.03-.03l.03.03z"/>
      <path d="M106.8 85.6l.21.21c-.07-.07-.12-.16-.19-.23l-.02.02z"/>
    </g>
    <path d="M 384.82 439.85 L 371.16 434.73 C 371.16 434.73 376.8 434.41 380.61 430.6 C 384.42 426.79 384.75 421.14 384.75 421.14 L 389.87 434.8 C 390.88 437.91 387.93 440.86 384.82 439.85 Z" fill="#616161"/>
    <path d="M 309.18 333.71 L 303.77 353 L 283.73 359.16 L 272.41 347.85 C 269.29 344.73 267.81 338.51 276.08 330.24 L 281.07 325.25 C 288.22 318.1 294.75 319.27 297.87 322.39 L 309.18 333.71 Z" fill="#ef5350"/>
    <path d="M 300.27 360.64 L 310.64 350.27 L 370.87 410.5 C 370.87 410.5 372.1 415.62 368.97 418.75 C 365.84 421.88 360.5 420.87 360.5 420.87 L 300.27 360.64 Z" fill="#ffc107"/>
    <path d="M 292.73 368.18 L 351.31 426.76 C 360.77 428.82 360.36 420.73 360.36 420.73 L 300.27 360.64 L 292.73 368.18 Z" fill="#ffa000"/>
    <path d="M 310.65 350.26 L 370.74 410.35 C 370.74 410.35 381.56 410.35 376.61 401.14 L 318.19 342.72 L 310.65 350.26 Z" fill="#fdd835"/>
    <path fill="#d1762c" d="M 360.27 422.04 L 299.66 361.43 L 301.07 360.02 L 362.07 421.02 L 360.5 420.86 L 360.27 422.04 Z"/>
    <path fill="#f19534" d="M 371.11 412.15 L 306.15 347.19 L 307.57 345.78 L 372.04 410.25 L 370.87 410.49 L 371.11 412.15 Z"/>
    <path d="M 318.19 342.72 C 318.19 342.72 312.72 350.81 308.19 355.39 C 299.52 364.13 292.73 368.18 292.73 368.18 L 294.48 369.93 C 296.97 368.96 303.34 366.05 309.7 359.7 C 316.1 353.3 319.12 347.05 320.13 344.66 L 318.19 342.72 Z" opacity=".2" fill="#4e342e"/>
    <path d="M 289.49 367.9 C 290.05 368.46 290.84 368.71 291.62 368.58 C 291.62 368.58 299.81 366.08 307.95 357.94 C 316.09 349.8 318.78 341.87 318.78 341.87 C 318.91 341.09 318.66 340.29 318.1 339.73 L 309.52 331.15 C 309.16 330.79 308.66 330.6 308.16 330.66 C 307.99 330.68 307.82 330.7 307.64 330.73 C 306.96 330.83 306.42 331.33 306.23 331.99 C 306.23 331.99 302.31 339.59 295.85 346.04 C 289.39 352.49 281.51 356.25 281.51 356.25 C 280.85 356.43 280.34 356.96 280.24 357.64 L 280.24 357.66 C 280.16 358.2 280.34 358.74 280.72 359.12 L 289.49 367.9 Z" fill="#94d1e0"/>
    <ellipse transform="matrix(0.707094, -0.707119, 0.707119, 0.707094, 259.769561, 331.051061)" cx="15.05" cy="15.04" rx="15.03" ry="4.45" fill="#ff8383"/>
    <path d="M 307.61 337.74 C 304.32 344.04 298.91 349.21 292.47 352.2 C 292.05 352.39 291.46 352.53 291.21 352.15 C 291.02 351.85 291.19 351.47 291.38 351.17 C 292.22 349.87 293.38 348.82 294.5 347.75 C 297.42 344.95 300.1 341.91 302.51 338.67 C 303.74 337.02 304.89 335.32 305.97 333.57 C 306.57 332.61 307.64 330.58 309.01 332.01 C 310.2 333.24 308.24 336.53 307.61 337.74 Z" fill="#b9e4ea"/>
    <path d="M 303.88 349.47 C 303.62 349.74 303.35 350.01 303.22 350.36 C 303.09 350.71 303.14 351.16 303.44 351.38 C 303.69 351.57 304.03 351.55 304.34 351.5 C 306.07 351.23 307.6 350.25 308.95 349.15 C 311.9 346.76 314.4 343.44 314.64 339.65 C 314.67 339.2 314.66 338.73 314.46 338.33 C 313.19 335.82 310.5 341.43 309.97 342.22 C 308.2 344.85 306.09 347.21 303.88 349.47 Z" fill="#b9e4ea"/>
  </g>
</svg>